<?xml version="1.0" standalone="no"?><!DOCTYPE svg PUBLIC "-//W3C//DTD SVG 1.1//EN" "http://www.w3.org/Graphics/SVG/1.1/DTD/svg11.dtd"><svg t="1715826974604" class="icon" viewBox="0 0 5322 1024" version="1.1" xmlns="http://www.w3.org/2000/svg" p-id="5191" data-spm-anchor-id="a313x.search_index.0.i2.4e603a81QSvnPN" xmlns:xlink="http://www.w3.org/1999/xlink" width="1039.453125" height="200"><path d="M916.810278 459.451408c-19.298819 0-26.506812 2.790191-38.830154 13.718438-12.788374 11.393279-39.06267 38.597639-44.875568 47.200726-2.790191 4.185286-1.627611 7.90554 0.697548 12.090827 14.18347 24.181653 39.992734 31.389646 76.497729 31.389646h278.554042c19.298819 0 26.506812-2.790191 38.830154-13.718438 12.788374-11.393279 39.06267-38.597639 44.875568-47.200727 2.790191-4.185286 1.627611-7.90554-0.697548-12.090826-14.18347-24.181653-39.992734-31.389646-76.497729-31.389646H916.810278z" fill="#FA2828" p-id="5192"></path><path d="M1633.889297 403.415077c-17.206176-8.835604-24.879201-9.533152-40.690281-5.347865-16.508629 4.417802-52.316076 16.741144-61.384196 21.623978-4.417802 2.325159-5.11535 6.277929-4.882834 10.928247 1.627611 27.901907 21.391462 46.038147 53.943687 62.546776l248.09446 126.488646c17.206176 8.835604 25.111717 9.533152 40.690281 5.347866 16.508629-4.417802 52.316076-16.508629 61.384197-21.623978 4.417802-2.325159 5.11535-6.510445 4.882833-11.160763-1.627611-27.901907-21.391462-46.038147-53.943687-62.546776l-248.09446-126.488647v0.232516zM1426.485119 258.092643c-3.720254-2.325159-7.440509-3.487738-11.393279-0.697548-8.138056 5.580381-33.714805 30.459582-44.643051 42.317893-10.230699 11.393279-13.02089 18.368756-13.02089 36.504996V692.897366c0 34.412352 6.742961 58.826521 29.529518 72.079927 3.720254 2.325159 7.440509 3.255223 11.393279 0.697548 8.138056-5.580381 33.714805-30.459582 44.643052-42.317893 10.230699-11.393279 13.02089-18.368756 13.02089-36.504995V330.17257c0-34.412352-6.742961-58.594005-29.529519-72.079927zM2075.669497 258.092643c-3.720254-2.325159-7.440509-3.487738-11.393279-0.697548-8.138056 5.580381-33.714805 30.459582-44.643052 42.317893-10.230699 11.393279-13.02089 18.368756-13.02089 36.504996V692.897366c0 34.412352 6.742961 58.826521 29.529519 72.079927 3.720254 2.325159 7.440509 3.255223 11.393279 0.697548 8.138056-5.580381 33.714805-30.459582 44.643052-42.317893 10.230699-11.393279 13.02089-18.368756 13.02089-36.504995V330.17257c0-34.412352-6.742961-58.594005-29.529519-72.079927zM276.461504 403.415077c-17.206176-8.835604-24.879201-9.533152-40.690281-5.347865-16.508629 4.417802-52.316076 16.741144-61.384196 21.623978-4.417802 2.325159-5.11535 6.277929-4.882834 10.928247 1.627611 27.901907 21.391462 46.038147 53.943687 62.546776l248.09446 126.488646c17.206176 8.835604 25.111717 9.533152 40.690282 5.347866 16.508629-4.417802 52.316076-16.508629 61.384196-21.623978 4.417802-2.325159 5.11535-6.510445 4.882834-11.160763-1.627611-27.901907-21.391462-46.038147-53.943688-62.546776l-248.09446-126.488647v0.232516zM69.057326 258.092643c-3.720254-2.325159-7.440509-3.487738-11.393278-0.697548-8.138056 5.580381-33.714805 30.459582-44.643052 42.317893-10.230699 11.393279-13.02089 18.368756-13.02089 36.504996V692.897366c0 34.412352 6.742961 58.826521 29.529518 72.079927 3.720254 2.325159 7.440509 3.255223 11.393279 0.697548 8.138056-5.580381 33.714805-30.459582 44.643052-42.317893 10.230699-11.393279 13.02089-18.368756 13.02089-36.504995V330.17257c0-34.412352-6.742961-58.594005-29.529519-72.079927zM718.241704 258.092643c-3.720254-2.325159-7.440509-3.487738-11.393279-0.697548-8.138056 5.580381-33.714805 30.459582-44.643051 42.317893-10.230699 11.393279-13.02089 18.368756-13.020891 36.504996V692.897366c0 34.412352 6.742961 58.826521 29.529519 72.079927 3.720254 2.325159 7.440509 3.255223 11.393279 0.697548 8.138056-5.580381 33.714805-30.459582 44.643052-42.317893 10.230699-11.393279 13.02089-18.368756 13.02089-36.504995V330.17257c0-34.412352-6.742961-58.594005-29.529519-72.079927z" fill="#494949" p-id="5193"></path><path d="M5267.182667 168.108992c-35.1099-54.641235-85.100817-96.26158-149.740236-124.861036C5052.570496 14.415985 4974.910187 0.232516 4884.228988 0.232516h-420.853769V1023.069936h189.965486V160.668483h222.052679c83.705722 0 146.950045 17.671208 189.267939 53.24614 42.317893 35.574932 63.476839 85.565849 63.476839 149.740236 0 64.174387-21.158946 114.165304-63.476839 149.740236-42.317893 35.574932-105.562216 53.24614-189.267939 53.24614h-164.388737v160.668483h173.224341c90.681199 0 168.341508-14.881017 233.213443-44.643051 64.871935-29.762035 114.630336-71.614896 149.740236-125.791099 35.1099-54.176203 52.548592-118.583106 52.548592-193.685741 0-75.102634-17.438692-141.369664-52.548592-195.778383v0.697548zM3680.261686 63.709355c-79.520436 42.085377-141.369664 101.841962-185.315168 179.037239-43.945504 77.195277-66.034514 167.178928-66.034514 270.18347 0 103.004541 21.856494 192.988193 66.034514 270.183469 43.945504 77.195277 105.794732 136.719346 185.315168 178.339691s170.666667 62.546776 273.671208 62.546776c138.114441 0 249.257039-29.297003 333.427793-88.123524v-168.80654a437.641417 437.641417 0 0 1-132.766576 69.522253c-54.176203 17.438692-116.025431 26.04178-185.315168 26.04178-69.289737 0-133.696639-14.18347-188.105359-42.782924s-96.726612-69.057221-126.953678-121.373297c-30.459582-52.316076-45.573115-114.165304-45.573116-185.315169 0-71.149864 14.881017-132.766576 44.875568-185.315168 29.99455-52.316076 72.079927-92.773842 126.256131-121.373297 54.176203-28.599455 117.420527-42.782925 189.500454-42.782924 131.37148 0 233.445958 32.087193 318.081744 98.819255V93.006358c-89.751135-61.616712-200.893733-92.541326-333.427793-92.541326-103.004541 0-194.150772 21.158946-273.671208 63.244323z" fill="#000000" p-id="5194" data-spm-anchor-id="a313x.search_index.0.i0.4e603a81QSvnPN" class="selected"></path><path d="M2616.733984 0m0 0l185.7802 0q0 0 0 0l0 1023.069936q0 0 0 0l-185.7802 0q0 0 0 0l0-1023.069936q0 0 0 0Z" fill="#000000" p-id="5195"></path><path d="M3474.950151 0h-220.425068L2860.178126 437.594914v126.953678L3281.031895 1023.069936h220.192552l-478.517711-521.300635L3474.950151 0z" fill="#000000" p-id="5196" data-spm-anchor-id="a313x.search_index.0.i1.4e603a81QSvnPN"></path></svg>